<?xml version="1.0" standalone="no"?>
<!DOCTYPE svg PUBLIC "-//W3C//DTD SVG 20010904//EN"
 "http://www.w3.org/TR/2001/REC-SVG-20010904/DTD/svg10.dtd">
<svg version="1.0" xmlns="http://www.w3.org/2000/svg"
 width="100.000000pt" height="100.000000pt" viewBox="0 0 100.000000 100.000000"
 preserveAspectRatio="xMidYMid meet">

<g transform="translate(0.000000,100.000000) scale(0.100000,-0.100000)"
fill="#000000" stroke="none">
<path d="M460 940 c-11 -11 -20 -31 -20 -45 l0 -25 -41 22 c-49 25 -112 32
-193 21 -61 -8 -86 -30 -46 -40 11 -3 19 -11 17 -17 -3 -6 -35 -84 -71 -173
-66 -158 -67 -163 -52 -192 9 -16 33 -43 53 -58 30 -23 46 -28 93 -28 47 0 63
5 93 28 20 15 44 42 53 58 15 30 14 34 -56 201 -54 131 -67 174 -58 180 26 18
124 3 167 -25 l41 -27 0 -340 0 -340 -75 0 c-67 0 -79 -3 -100 -25 -14 -13
-25 -36 -25 -50 l0 -25 260 0 260 0 0 25 c0 14 -11 37 -25 50 -21 22 -33 25
-100 25 l-75 0 0 324 c0 362 -6 336 74 336 47 0 146 -44 146 -65 0 -7 -32 -89
-71 -183 -69 -167 -70 -171 -55 -201 9 -16 33 -43 53 -58 30 -23 46 -28 93
-28 47 0 63 5 94 28 20 16 44 43 52 60 14 31 12 37 -54 197 -63 151 -67 166
-51 172 32 12 22 25 -58 69 -71 39 -84 43 -150 44 l-73 0 0 43 c0 47 -26 82
-60 82 -11 0 -29 -9 -40 -20z m58 -413 c2 -382 2 -387 -18 -387 -20 0 -20 6
-20 383 0 211 3 387 7 391 25 24 28 -18 31 -387z m-261 145 l51 -127 -54 -3
c-30 -2 -78 -2 -108 0 l-54 3 51 127 c29 70 54 128 57 128 3 0 28 -58 57 -128z
m600 -140 l51 -127 -54 -3 c-30 -2 -78 -2 -108 0 l-54 3 51 127 c29 70 54 128
57 128 3 0 28 -58 57 -128z m-563 -46 c-7 -18 -65 -46 -94 -46 -29 0 -87 28
-94 46 -4 11 12 14 94 14 82 0 98 -3 94 -14z m600 -140 c-7 -18 -65 -46 -94
-46 -29 0 -87 28 -94 46 -4 11 12 14 94 14 82 0 98 -3 94 -14z m-189 -256 c4
-7 -67 -10 -205 -10 -138 0 -209 3 -205 10 8 14 402 14 410 0z"/>
</g>
</svg>
