<?xml version="1.0" standalone="no"?>
<!DOCTYPE svg PUBLIC "-//W3C//DTD SVG 20010904//EN"
 "http://www.w3.org/TR/2001/REC-SVG-20010904/DTD/svg10.dtd">
<svg version="1.0" xmlns="http://www.w3.org/2000/svg"
 width="100.000000pt" height="100.000000pt" viewBox="0 0 100.000000 100.000000"
 preserveAspectRatio="xMidYMid meet">

<g transform="translate(0.000000,100.000000) scale(0.100000,-0.100000)"
fill="#000000" stroke="none">
<path d="M218 904 c-15 -8 -32 -23 -38 -34 -6 -12 -10 -150 -10 -372 0 -385 0
-383 57 -407 18 -7 73 -11 147 -9 100 3 121 6 130 20 21 33 -7 43 -142 48
l-127 5 0 345 0 345 139 5 c115 4 141 8 149 22 8 12 7 21 -2 32 -19 22 -262
23 -303 0z"/>
<path d="M590 905 c-8 -10 -11 -43 -9 -104 5 -119 15 -131 115 -131 l73 0 3
-87 c3 -86 3 -88 28 -88 25 0 25 0 28 109 l3 110 -103 103 c-56 57 -108 103
-114 103 -6 0 -17 -7 -24 -15z m100 -140 l34 -35 -37 0 c-36 0 -37 1 -37 35 0
19 1 35 3 35 2 0 18 -16 37 -35z"/>
<path d="M336 544 c-14 -37 10 -44 164 -44 154 0 178 7 164 44 -5 14 -27 16
-164 16 -137 0 -159 -2 -164 -16z"/>
<path d="M730 415 c-25 -14 -52 -25 -60 -25 -9 0 -26 -7 -38 -16 -20 -14 -22
-24 -22 -97 0 -58 6 -94 19 -122 32 -71 111 -135 166 -135 42 0 115 48 115 76
0 34 -27 36 -71 7 l-41 -27 -35 19 c-62 34 -87 78 -91 162 -4 66 -2 73 14 73
11 1 39 11 62 24 l44 22 43 -21 c23 -12 53 -25 65 -28 21 -5 22 -10 19 -84 -4
-75 -3 -78 18 -81 31 -4 43 30 43 119 0 74 -19 109 -58 109 -10 0 -41 11 -68
25 -60 30 -67 30 -124 0z"/>
<path d="M342 408 c-16 -16 -15 -23 4 -42 12 -12 37 -16 109 -16 51 0 100 3
109 6 21 8 21 50 0 58 -30 11 -209 7 -222 -6z"/>
</g>
</svg>
