<svg width="94" height="36" viewBox="0 0 94 36" fill="none" xmlns="http://www.w3.org/2000/svg">
<rect width="94" height="36" rx="14" fill="#CDFFC5"/>
<path d="M14 18L17 21L22 15M27 18C27 22.9706 22.9706 27 18 27C13.0294 27 9 22.9706 9 18C9 13.0294 13.0294 9 18 9C22.9706 9 27 13.0294 27 18Z" stroke="#098C26" stroke-width="1.6" stroke-linecap="round"/>
<path d="M38.256 23L34.336 13.2H36.058L38.396 19.15C38.508 19.4393 38.606 19.7007 38.69 19.934C38.7833 20.1673 38.8627 20.382 38.928 20.578C38.9933 20.7647 39.054 20.942 39.11 21.11C39.166 21.278 39.222 21.446 39.278 21.614L38.914 21.628C38.9793 21.404 39.0493 21.1707 39.124 20.928C39.1987 20.6853 39.2827 20.4193 39.376 20.13C39.4787 19.8407 39.6 19.514 39.74 19.15L41.91 13.2H43.674L39.726 23H38.256ZM47.6118 23.14C46.8558 23.14 46.1838 22.9813 45.5958 22.664C45.0172 22.3373 44.5598 21.894 44.2238 21.334C43.8972 20.774 43.7338 20.13 43.7338 19.402C43.7338 18.8233 43.8272 18.296 44.0138 17.82C44.2005 17.344 44.4572 16.9333 44.7838 16.588C45.1198 16.2333 45.5165 15.9627 45.9738 15.776C46.4405 15.58 46.9445 15.482 47.4858 15.482C47.9618 15.482 48.4052 15.5753 48.8158 15.762C49.2265 15.9393 49.5812 16.1867 49.8798 16.504C50.1878 16.8213 50.4212 17.1993 50.5798 17.638C50.7478 18.0673 50.8272 18.5387 50.8178 19.052L50.8038 19.668H44.7978L44.4758 18.52H49.5578L49.3478 18.758V18.422C49.3198 18.114 49.2172 17.8387 49.0398 17.596C48.8625 17.3533 48.6385 17.162 48.3678 17.022C48.0972 16.882 47.8032 16.812 47.4858 16.812C46.9818 16.812 46.5572 16.91 46.2118 17.106C45.8665 17.2927 45.6052 17.5727 45.4278 17.946C45.2505 18.31 45.1618 18.7627 45.1618 19.304C45.1618 19.8173 45.2692 20.2653 45.4838 20.648C45.6985 21.0213 46.0018 21.3107 46.3938 21.516C46.7858 21.7213 47.2385 21.824 47.7518 21.824C48.1158 21.824 48.4518 21.7633 48.7598 21.642C49.0772 21.5207 49.4178 21.3013 49.7818 20.984L50.5098 22.006C50.2858 22.23 50.0105 22.426 49.6838 22.594C49.3665 22.762 49.0258 22.8973 48.6618 23C48.3072 23.0933 47.9572 23.14 47.6118 23.14ZM52.385 23V15.65H53.841V17.96L53.701 17.4C53.8036 17.0453 53.9763 16.7233 54.219 16.434C54.471 16.1447 54.7556 15.916 55.073 15.748C55.3996 15.58 55.7356 15.496 56.081 15.496C56.2396 15.496 56.389 15.51 56.529 15.538C56.6783 15.566 56.795 15.5987 56.879 15.636L56.501 17.204C56.389 17.1573 56.263 17.12 56.123 17.092C55.9923 17.0547 55.8616 17.036 55.731 17.036C55.479 17.036 55.2363 17.0873 55.003 17.19C54.779 17.2833 54.5783 17.4187 54.401 17.596C54.233 17.764 54.0976 17.9647 53.995 18.198C53.8923 18.422 53.841 18.6693 53.841 18.94V23H52.385ZM58.2694 23V15.65H59.7114V23H58.2694ZM58.9694 14.026C58.6614 14.026 58.4234 13.9467 58.2554 13.788C58.0874 13.6293 58.0034 13.4053 58.0034 13.116C58.0034 12.8453 58.0874 12.626 58.2554 12.458C58.4328 12.29 58.6708 12.206 58.9694 12.206C59.2774 12.206 59.5154 12.2853 59.6834 12.444C59.8514 12.6027 59.9354 12.8267 59.9354 13.116C59.9354 13.3867 59.8468 13.606 59.6694 13.774C59.5014 13.942 59.2681 14.026 58.9694 14.026ZM62.7259 23V14.824C62.7259 14.404 62.8193 14.0307 63.0059 13.704C63.1926 13.3773 63.4493 13.1207 63.7759 12.934C64.1026 12.7473 64.4806 12.654 64.9099 12.654C65.2086 12.654 65.4886 12.71 65.7499 12.822C66.0113 12.934 66.2213 13.0833 66.3799 13.27L65.8899 14.376C65.7686 14.264 65.6333 14.1753 65.4839 14.11C65.3439 14.0353 65.2086 13.998 65.0779 13.998C64.8819 13.998 64.7139 14.0307 64.5739 14.096C64.4433 14.152 64.3453 14.2453 64.2799 14.376C64.2146 14.4973 64.1819 14.6467 64.1819 14.824V23H63.4539C63.3326 23 63.2113 23 63.0899 23C62.9686 23 62.8473 23 62.7259 23ZM61.5499 17.106V15.776H65.9179V17.106H61.5499ZM67.6679 23V15.65H69.1099V23H67.6679ZM68.3679 14.026C68.0599 14.026 67.8219 13.9467 67.6539 13.788C67.4859 13.6293 67.4019 13.4053 67.4019 13.116C67.4019 12.8453 67.4859 12.626 67.6539 12.458C67.8313 12.29 68.0693 12.206 68.3679 12.206C68.6759 12.206 68.9139 12.2853 69.0819 12.444C69.2499 12.6027 69.3339 12.8267 69.3339 13.116C69.3339 13.3867 69.2453 13.606 69.0679 13.774C68.8999 13.942 68.6666 14.026 68.3679 14.026ZM74.7505 23.14C73.9945 23.14 73.3225 22.9813 72.7345 22.664C72.1558 22.3373 71.6985 21.894 71.3625 21.334C71.0358 20.774 70.8725 20.13 70.8725 19.402C70.8725 18.8233 70.9658 18.296 71.1525 17.82C71.3392 17.344 71.5958 16.9333 71.9225 16.588C72.2585 16.2333 72.6552 15.9627 73.1125 15.776C73.5792 15.58 74.0832 15.482 74.6245 15.482C75.1005 15.482 75.5438 15.5753 75.9545 15.762C76.3652 15.9393 76.7198 16.1867 77.0185 16.504C77.3265 16.8213 77.5598 17.1993 77.7185 17.638C77.8865 18.0673 77.9658 18.5387 77.9565 19.052L77.9425 19.668H71.9365L71.6145 18.52H76.6965L76.4865 18.758V18.422C76.4585 18.114 76.3558 17.8387 76.1785 17.596C76.0012 17.3533 75.7772 17.162 75.5065 17.022C75.2358 16.882 74.9418 16.812 74.6245 16.812C74.1205 16.812 73.6958 16.91 73.3505 17.106C73.0052 17.2927 72.7438 17.5727 72.5665 17.946C72.3892 18.31 72.3005 18.7627 72.3005 19.304C72.3005 19.8173 72.4078 20.2653 72.6225 20.648C72.8372 21.0213 73.1405 21.3107 73.5325 21.516C73.9245 21.7213 74.3772 21.824 74.8905 21.824C75.2545 21.824 75.5905 21.7633 75.8985 21.642C76.2158 21.5207 76.5565 21.3013 76.9205 20.984L77.6485 22.006C77.4245 22.23 77.1492 22.426 76.8225 22.594C76.5052 22.762 76.1645 22.8973 75.8005 23C75.4458 23.0933 75.0958 23.14 74.7505 23.14ZM82.5896 23.14C81.9176 23.14 81.3156 22.9767 80.7836 22.65C80.261 22.314 79.8456 21.8613 79.5376 21.292C79.2296 20.7133 79.0756 20.0553 79.0756 19.318C79.0756 18.5807 79.225 17.9273 79.5236 17.358C79.8316 16.7793 80.247 16.3267 80.7696 16C81.2923 15.664 81.885 15.496 82.5476 15.496C82.9116 15.496 83.2616 15.5567 83.5976 15.678C83.943 15.79 84.251 15.9487 84.5216 16.154C84.7923 16.35 85.0023 16.5693 85.1516 16.812C85.3103 17.0453 85.3896 17.2833 85.3896 17.526L84.9696 17.554V12.64H86.4116V23H84.9696V21.25H85.2496C85.2496 21.474 85.175 21.698 85.0256 21.922C84.8763 22.1367 84.6756 22.3373 84.4236 22.524C84.181 22.7107 83.8963 22.86 83.5696 22.972C83.2523 23.084 82.9256 23.14 82.5896 23.14ZM82.7856 21.894C83.2243 21.894 83.6116 21.782 83.9476 21.558C84.2836 21.334 84.545 21.0307 84.7316 20.648C84.9276 20.256 85.0256 19.8127 85.0256 19.318C85.0256 18.8233 84.9276 18.3847 84.7316 18.002C84.545 17.61 84.2836 17.302 83.9476 17.078C83.6116 16.854 83.2243 16.742 82.7856 16.742C82.347 16.742 81.9596 16.854 81.6236 17.078C81.2876 17.302 81.0216 17.61 80.8256 18.002C80.639 18.3847 80.5456 18.8233 80.5456 19.318C80.5456 19.8127 80.639 20.256 80.8256 20.648C81.0216 21.0307 81.2876 21.334 81.6236 21.558C81.9596 21.782 82.347 21.894 82.7856 21.894Z" fill="#11183C"/>
</svg>
