<svg width="24" height="24" viewBox="0 0 24 24" fill="none" xmlns="http://www.w3.org/2000/svg">
  <path d="M7 5.7998H17C17.9654 5.7998 18.609 5.80183 19.0879 5.86621C19.5438 5.92751 19.7292 6.03189 19.8486 6.15137C19.9681 6.27085 20.0725 6.45619 20.1338 6.91211C20.1982 7.39104 20.2002 8.0346 20.2002 9V15C20.2002 15.9654 20.1982 16.609 20.1338 17.0879C20.0725 17.5438 19.9681 17.7292 19.8486 17.8486C19.7292 17.9681 19.5438 18.0725 19.0879 18.1338C18.609 18.1982 17.9654 18.2002 17 18.2002H7C6.0346 18.2002 5.39104 18.1982 4.91211 18.1338C4.45619 18.0725 4.27085 17.9681 4.15137 17.8486C4.03189 17.7292 3.92751 17.5438 3.86621 17.0879C3.80183 16.609 3.7998 15.9654 3.7998 15V9C3.7998 8.0346 3.80183 7.39104 3.86621 6.91211C3.92751 6.45619 4.03189 6.27085 4.15137 6.15137C4.27085 6.03189 4.45619 5.92751 4.91211 5.86621C5.39104 5.80183 6.0346 5.7998 7 5.7998Z" stroke="#696F8C" stroke-width="1.6"/>
  <path d="M4 9L12 12L20 9" stroke="#696F8C" stroke-width="1.6" stroke-linecap="round" stroke-linejoin="round"/>
</svg>